<svg width="265" height="57" viewBox="0 0 265 57" fill="none" xmlns="http://www.w3.org/2000/svg">
<g filter="url(#filter0_d)">
<path d="M40.1859 31.404C40.1859 33.252 39.4899 34.74 38.0979 35.868C36.7299 36.996 35.0019 37.56 32.9139 37.56C30.8259 37.56 28.7739 37.056 26.7579 36.048C26.7339 35.664 26.7219 35.028 26.7219 34.14C26.7219 33.252 26.8299 32.124 27.0459 30.756C27.3099 30.756 27.6219 30.792 27.9819 30.864C27.9819 30.936 27.9819 31.008 27.9819 31.08C27.9819 34.464 29.6859 36.156 33.0939 36.156C34.4379 36.156 35.5419 35.784 36.4059 35.04C37.2699 34.272 37.7019 33.336 37.7019 32.232C37.7019 31.104 37.3299 30.156 36.5859 29.388C35.8659 28.596 34.9899 27.948 33.9579 27.444C32.9259 26.916 31.8939 26.388 30.8619 25.86C29.8299 25.308 28.9419 24.576 28.1979 23.664C27.4779 22.728 27.1179 21.624 27.1179 20.352C27.1179 18.672 27.7419 17.34 28.9899 16.356C30.2619 15.372 31.8459 14.88 33.7419 14.88C35.6379 14.88 37.5339 15.24 39.4299 15.96C39.3819 17.64 39.2499 19.056 39.0339 20.208C38.6499 20.208 38.3859 20.184 38.2419 20.136C37.7619 17.568 36.2019 16.284 33.5619 16.284C32.2899 16.284 31.2819 16.608 30.5379 17.256C29.8179 17.88 29.4579 18.72 29.4579 19.776C29.4579 20.832 29.8179 21.72 30.5379 22.44C31.2819 23.16 32.1819 23.772 33.2379 24.276C34.2939 24.756 35.3499 25.272 36.4059 25.824C37.4619 26.352 38.3499 27.084 39.0699 28.02C39.8139 28.956 40.1859 30.084 40.1859 31.404ZM47.9119 16.824C47.5519 17.208 47.1079 17.4 46.5799 17.4C46.0519 17.4 45.5959 17.208 45.2119 16.824C44.8279 16.44 44.6359 15.984 44.6359 15.456C44.6359 14.928 44.8279 14.472 45.2119 14.088C45.5959 13.704 46.0519 13.512 46.5799 13.512C47.1079 13.512 47.5519 13.704 47.9119 14.088C48.2959 14.448 48.4879 14.904 48.4879 15.456C48.4879 15.984 48.2959 16.44 47.9119 16.824ZM45.3199 34.392V22.98C44.9359 22.956 44.5279 22.944 44.0959 22.944C43.6879 22.944 43.2559 22.956 42.7999 22.98C42.7999 22.74 42.8479 22.404 42.9439 21.972C44.6239 21.348 46.2799 20.904 47.9119 20.64V35.616C48.5839 35.904 49.3999 36.084 50.3599 36.156C50.3599 36.588 50.3239 36.948 50.2519 37.236H42.8719C42.8239 36.876 42.8479 36.516 42.9439 36.156C43.8319 36.06 44.4439 35.892 44.7799 35.652C45.1399 35.412 45.3199 34.992 45.3199 34.392ZM78.7402 25.788V35.616C79.4842 35.904 80.3242 36.084 81.2602 36.156C81.2602 36.588 81.2242 36.948 81.1522 37.236H73.8082C73.7602 36.876 73.7842 36.516 73.8802 36.156C74.7442 36.06 75.3322 35.892 75.6442 35.652C75.9562 35.412 76.1122 34.992 76.1122 34.392V26.004C76.1122 24.828 75.8362 23.928 75.2842 23.304C74.7322 22.68 73.9762 22.368 73.0162 22.368C70.9042 22.368 69.3322 23.616 68.3002 26.112V35.616C68.9722 35.904 69.7882 36.084 70.7482 36.156C70.7482 36.588 70.7122 36.948 70.6402 37.236H63.4042C63.3802 36.948 63.3922 36.588 63.4402 36.156C64.3042 36.06 64.8922 35.892 65.2042 35.652C65.5402 35.412 65.7082 34.992 65.7082 34.392V26.004C65.7082 24.828 65.4322 23.928 64.8802 23.304C64.3282 22.68 63.5602 22.368 62.5762 22.368C60.4882 22.368 58.9282 23.616 57.8962 26.112V35.616C58.5682 35.904 59.3842 36.084 60.3442 36.156C60.3442 36.588 60.3082 36.948 60.2362 37.236H52.8562C52.8082 36.876 52.8322 36.516 52.9282 36.156C53.8162 36.06 54.4282 35.892 54.7642 35.652C55.1242 35.412 55.3042 34.992 55.3042 34.392V22.944C54.6082 22.92 54.0682 22.908 53.6842 22.908C53.3002 22.908 53.0002 22.908 52.7842 22.908C52.7842 22.62 52.8322 22.308 52.9282 21.972C54.5122 21.348 56.0722 20.904 57.6082 20.64C57.7522 21.552 57.8482 22.728 57.8962 24.168C59.1202 21.672 60.9802 20.424 63.4762 20.424C64.6762 20.424 65.6962 20.76 66.5362 21.432C67.4002 22.104 67.9522 23.088 68.1922 24.384C69.4162 21.744 71.3122 20.424 73.8802 20.424C75.2962 20.424 76.4602 20.892 77.3722 21.828C78.2842 22.74 78.7402 24.06 78.7402 25.788ZM91.2232 36.048C92.7592 36.048 94.0672 35.424 95.1472 34.176C96.2272 32.904 96.7672 31.116 96.7672 28.812C96.7672 26.484 96.3472 24.792 95.5072 23.736C94.6912 22.68 93.7552 22.152 92.6992 22.152C91.6432 22.152 90.7312 22.476 89.9632 23.124C89.1952 23.772 88.6432 24.72 88.3072 25.968V35.472C89.2192 35.856 90.1912 36.048 91.2232 36.048ZM85.6432 42.456V22.944C84.9472 22.92 84.4072 22.908 84.0232 22.908C83.6392 22.908 83.3512 22.908 83.1592 22.908C83.2072 22.452 83.2672 22.14 83.3392 21.972C84.8992 21.348 86.4232 20.904 87.9112 20.64C88.1032 21.504 88.2232 22.524 88.2712 23.7C89.1352 21.516 90.6952 20.424 92.9512 20.424C94.7512 20.424 96.3112 21.144 97.6312 22.584C98.9752 24.024 99.6472 26.1 99.6472 28.812C99.6472 31.524 98.7712 33.684 97.0192 35.292C95.2912 36.876 93.2392 37.668 90.8632 37.668C89.9992 37.668 89.1472 37.524 88.3072 37.236V43.428C89.2672 43.86 90.3952 44.136 91.6912 44.256C91.6912 44.784 91.6672 45.144 91.6192 45.336H83.1952C83.1472 44.928 83.1832 44.568 83.3032 44.256C84.1912 44.136 84.8032 43.956 85.1392 43.716C85.4752 43.476 85.6432 43.056 85.6432 42.456ZM104.769 34.392V13.836C104.505 13.812 104.169 13.8 103.761 13.8C103.353 13.8 102.849 13.812 102.249 13.836C102.249 13.548 102.297 13.212 102.393 12.828C103.977 12.18 105.633 11.736 107.361 11.496V35.616C108.033 35.904 108.849 36.084 109.809 36.156C109.809 36.588 109.773 36.948 109.701 37.236H102.321C102.273 36.876 102.297 36.516 102.393 36.156C103.281 36.06 103.893 35.892 104.229 35.652C104.589 35.412 104.769 34.992 104.769 34.392ZM115.15 45.336H114.682C114.442 44.736 114.322 44.22 114.322 43.788C114.322 43.38 114.346 43.056 114.394 42.816H115.078C115.846 42.816 116.446 42.66 116.878 42.348C117.334 42.036 117.778 41.436 118.21 40.548L119.506 37.776L113.89 23.916C113.626 23.22 113.326 22.74 112.99 22.476C112.654 22.212 112.078 22.032 111.262 21.936C111.214 21.648 111.19 21.42 111.19 21.252C111.19 21.084 111.19 20.952 111.19 20.856H118.606C118.702 21.144 118.75 21.504 118.75 21.936C117.646 22.032 116.806 22.2 116.23 22.44L120.802 34.968C120.874 34.584 121.006 34.152 121.198 33.672L124.942 24.168C125.086 23.808 125.158 23.496 125.158 23.232C125.158 22.968 125.086 22.752 124.942 22.584C124.63 22.248 123.898 22.032 122.746 21.936C122.65 21.456 122.626 21.096 122.674 20.856H129.262C129.286 21.192 129.226 21.552 129.082 21.936C128.602 22.008 128.062 22.128 127.462 22.296L119.65 40.944C119.002 42.504 118.342 43.62 117.67 44.292C116.998 44.988 116.158 45.336 115.15 45.336Z" fill="#318FA4"/>
<path d="M145.859 15.24C145.931 15.912 145.967 16.644 145.967 17.436C145.967 18.204 145.931 19.02 145.859 19.884C145.691 19.956 145.391 19.992 144.959 19.992C144.839 18.672 144.551 17.76 144.095 17.256C143.639 16.728 142.847 16.464 141.719 16.464H138.659V35.58C139.667 35.94 140.783 36.144 142.007 36.192C142.055 36.552 142.031 36.9 141.935 37.236H132.683C132.635 36.852 132.671 36.504 132.791 36.192C134.087 36.072 134.951 35.904 135.383 35.688C135.839 35.448 136.067 35.04 136.067 34.464V16.464H133.007C131.879 16.464 131.087 16.728 130.631 17.256C130.175 17.76 129.887 18.672 129.767 19.992C129.335 19.992 129.035 19.956 128.867 19.884C128.795 19.14 128.759 18.384 128.759 17.616C128.759 16.824 128.795 16.032 128.867 15.24H145.859ZM152.76 25.14V25.392C153.336 23.904 154.2 22.704 155.352 21.792C156.504 20.88 157.74 20.424 159.06 20.424C159.18 20.712 159.24 21.072 159.24 21.504C159.24 21.912 159.156 22.404 158.988 22.98C156.996 22.98 155.364 23.64 154.092 24.96C153.372 25.752 152.928 26.736 152.76 27.912V35.4C153.84 35.832 155.1 36.084 156.54 36.156C156.54 36.612 156.492 36.972 156.396 37.236H147.72C147.696 36.948 147.708 36.588 147.756 36.156C148.668 36.036 149.292 35.856 149.628 35.616C149.988 35.376 150.168 34.956 150.168 34.356V22.944C149.472 22.92 148.932 22.908 148.548 22.908C148.164 22.908 147.864 22.908 147.648 22.908C147.648 22.62 147.696 22.308 147.792 21.972C149.376 21.348 150.936 20.904 152.472 20.64C152.664 21.864 152.76 23.364 152.76 25.14ZM163.651 32.952C163.651 33.84 163.903 34.536 164.407 35.04C164.935 35.52 165.631 35.76 166.495 35.76C167.815 35.76 168.919 35.28 169.807 34.32V28.452L167.251 29.1C164.851 29.748 163.651 31.032 163.651 32.952ZM172.399 37.668C171.775 37.668 171.235 37.5 170.779 37.164C170.323 36.804 170.023 36.312 169.879 35.688C168.679 37.008 167.323 37.668 165.811 37.668C164.323 37.668 163.135 37.248 162.247 36.408C161.359 35.544 160.915 34.44 160.915 33.096C160.915 30.456 162.739 28.74 166.387 27.948L169.807 27.192V25.608C169.807 24.528 169.579 23.736 169.123 23.232C168.691 22.728 167.863 22.476 166.639 22.476C165.415 22.476 163.975 22.764 162.319 23.34L161.851 22.62C163.627 21.156 165.619 20.424 167.827 20.424C169.291 20.424 170.419 20.856 171.211 21.72C172.027 22.584 172.435 23.784 172.435 25.32V33.852C172.435 34.572 172.519 35.076 172.687 35.364C172.855 35.652 173.119 35.796 173.479 35.796C173.863 35.796 174.331 35.736 174.883 35.616L175.099 36.048C174.283 37.128 173.383 37.668 172.399 37.668ZM175.885 21.936C175.837 21.648 175.813 21.42 175.813 21.252C175.813 21.084 175.813 20.952 175.813 20.856H183.265C183.337 21.072 183.373 21.432 183.373 21.936C182.245 22.032 181.405 22.224 180.853 22.512L185.497 35.544C185.593 35.064 185.761 34.476 186.001 33.78L189.601 24.168C189.793 23.808 189.889 23.508 189.889 23.268C189.889 23.004 189.829 22.8 189.709 22.656C189.421 22.272 188.665 22.032 187.441 21.936C187.297 21.624 187.249 21.264 187.297 20.856H194.389C194.413 21.096 194.353 21.456 194.209 21.936C193.489 22.008 192.745 22.188 191.977 22.476L186.073 37.452H184.021L178.549 23.916C178.261 23.22 177.949 22.74 177.613 22.476C177.277 22.212 176.701 22.032 175.885 21.936ZM206.774 26.436C206.75 24.876 206.378 23.724 205.658 22.98C204.938 22.236 204.062 21.864 203.03 21.864C202.022 21.864 201.074 22.272 200.186 23.088C199.298 23.904 198.722 25.128 198.458 26.76L202.634 26.472L206.774 26.436ZM198.278 28.776C198.278 31.008 198.734 32.736 199.646 33.96C200.582 35.16 201.938 35.76 203.714 35.76C205.49 35.76 207.242 35.184 208.97 34.032L209.294 34.68C207.542 36.672 205.394 37.668 202.85 37.668C201.05 37.668 199.418 37.008 197.954 35.688C197.21 35.016 196.61 34.14 196.154 33.06C195.722 31.956 195.506 30.72 195.506 29.352C195.506 26.544 196.322 24.36 197.954 22.8C199.586 21.216 201.338 20.424 203.21 20.424C205.082 20.424 206.594 21.024 207.746 22.224C208.922 23.4 209.51 25.092 209.51 27.3C209.366 27.564 209.234 27.78 209.114 27.948H198.314C198.29 28.116 198.278 28.392 198.278 28.776ZM214.503 34.392V13.836C214.239 13.812 213.903 13.8 213.495 13.8C213.087 13.8 212.583 13.812 211.983 13.836C211.983 13.548 212.031 13.212 212.127 12.828C213.711 12.18 215.367 11.736 217.095 11.496V35.616C217.767 35.904 218.583 36.084 219.543 36.156C219.543 36.588 219.507 36.948 219.435 37.236H212.055C212.007 36.876 212.031 36.516 212.127 36.156C213.015 36.06 213.627 35.892 213.963 35.652C214.323 35.412 214.503 34.992 214.503 34.392Z" fill="#555353"/>
</g>
<defs>
<filter id="filter0_d" x="22.7219" y="11.496" width="200.822" height="41.84" filterUnits="userSpaceOnUse" color-interpolation-filters="sRGB">
<feFlood flood-opacity="0" result="BackgroundImageFix"/>
<feColorMatrix in="SourceAlpha" type="matrix" values="0 0 0 0 0 0 0 0 0 0 0 0 0 0 0 0 0 0 127 0"/>
<feOffset dy="4"/>
<feGaussianBlur stdDeviation="2"/>
<feColorMatrix type="matrix" values="0 0 0 0 0 0 0 0 0 0 0 0 0 0 0 0 0 0 0.25 0"/>
<feBlend mode="normal" in2="BackgroundImageFix" result="effect1_dropShadow"/>
<feBlend mode="normal" in="SourceGraphic" in2="effect1_dropShadow" result="shape"/>
</filter>
</defs>
</svg>
